<svg xmlns="http://www.w3.org/2000/svg" viewBox="0 0 480 280">
<rect width="480" height="280" rx="24" fill="#ffffff"/>
<rect x="8" y="8" width="464" height="264" rx="20" fill="#f8fbff" stroke="#d9e5f2" stroke-width="3"/>
<defs><marker id="a" markerWidth="10" markerHeight="10" refX="9" refY="3" orient="auto"><path d="M0,0 L0,6 L9,3 z" fill="#2563eb"/></marker></defs>
<rect x="42" y="160" width="140" height="18" rx="8" fill="#64748b"/><rect x="310" y="160" width="140" height="18" rx="8" fill="#64748b"/><circle cx="150" cy="205" r="18" fill="#94a3b8"/><circle cx="420" cy="205" r="18" fill="#94a3b8"/><circle cx="105" cy="33" r="12" fill="none" stroke="#0b1830" stroke-width="7"/><path d="M105,53 L105,103 M87,59 L123,59 M87,61 L70,105 M123,61 L140,105 M105,103 L93,147 L87,193 M105,103 L117,147 L123,193" fill="none" stroke="#0b1830" stroke-width="9" stroke-linecap="round" stroke-linejoin="round"/><rect x="87" y="125" width="14" height="38" rx="7" fill="#ef4444" opacity=".75"/><rect x="109" y="125" width="14" height="38" rx="7" fill="#ef4444" opacity=".75"/><circle cx="365" cy="33" r="12" fill="none" stroke="#0b1830" stroke-width="7"/><path d="M365,53 L365,103 M347,59 L383,59 M347,61 L330,105 M383,61 L400,105 M365,103 L353,147 L347,193 M365,103 L377,147 L383,193" fill="none" stroke="#0b1830" stroke-width="9" stroke-linecap="round" stroke-linejoin="round"/><rect x="347" y="125" width="14" height="38" rx="7" fill="#ef4444" opacity=".75"/><rect x="369" y="125" width="14" height="38" rx="7" fill="#ef4444" opacity=".75"/><path d="M205 140 H275" stroke="#2563eb" stroke-width="6" marker-end="url(#a)"/></svg>